<svg xmlns="http://www.w3.org/2000/svg" width="1200" height="675" viewBox="0 0 1200 675" role="img" aria-labelledby="title desc">
  <title id="title">SEO para psicologos</title>
  <desc id="desc">Painel editorial com metricas, busca organica e artigos para psicologos.</desc>
  <rect width="1200" height="675" fill="#060F1E"/>
  <path d="M0 86h1200M0 172h1200M0 258h1200M0 344h1200M0 430h1200M0 516h1200M0 602h1200M120 0v675M240 0v675M360 0v675M480 0v675M600 0v675M720 0v675M840 0v675M960 0v675M1080 0v675" stroke="#1A2D42" stroke-opacity=".55"/>
  <rect x="120" y="110" width="960" height="455" rx="24" fill="#0D1B2E" stroke="#1A2D42" stroke-width="2"/>
  <rect x="160" y="150" width="380" height="54" rx="12" fill="#10243A"/>
  <rect x="160" y="228" width="260" height="18" rx="9" fill="#4ECDC4"/>
  <rect x="160" y="266" width="430" height="14" rx="7" fill="#6B8FA8"/>
  <rect x="160" y="296" width="390" height="14" rx="7" fill="#6B8FA8"/>
  <rect x="160" y="326" width="320" height="14" rx="7" fill="#6B8FA8"/>
  <rect x="160" y="390" width="170" height="54" rx="14" fill="#2F6F73"/>
  <rect x="685" y="170" width="88" height="250" rx="14" fill="#2F6F73"/>
  <rect x="793" y="240" width="88" height="180" rx="14" fill="#4ECDC4"/>
  <rect x="901" y="120" width="88" height="300" rx="14" fill="#EDF2F7"/>
  <path d="M685 472h304" stroke="#6B8FA8" stroke-width="12" stroke-linecap="round"/>
  <text x="160" y="190" fill="#EDF2F7" font-family="Arial, sans-serif" font-size="30" font-weight="700">Conteudo que vira busca</text>
  <text x="160" y="424" fill="#FFFFFF" font-family="Arial, sans-serif" font-size="18" font-weight="700">SEO ETHOS</text>
</svg>
